<svg width="663" height="119" viewBox="0 0 663 119" fill="none" xmlns="http://www.w3.org/2000/svg">
<path d="M322.417 74.5098C307.71 55.2444 311.113 27.4051 330.011 12.2264C334.271 8.80641 338.967 6.28554 343.866 4.64446C345.077 4.24228 344.8 2.44849 343.526 2.40886C329.934 1.98222 316.128 6.32624 304.799 15.7C280.763 35.5881 276.852 71.3661 296.027 95.9784C315.201 120.591 352.801 125.802 378.007 105.637C389.195 96.6809 396.202 84.419 398.709 71.3562C398.951 70.1014 397.262 69.4547 396.596 70.5515C393.937 74.9494 390.47 78.9559 386.226 82.3519C366.573 98.079 337.769 94.629 322.417 74.5098Z" fill="#E8FFE3"/>
<path d="M417.165 11.0434V14.9598C417.165 16.0987 416.076 16.928 414.977 16.6083L385.175 8.10615C384.865 8.01624 384.535 8.01624 384.235 8.10615L354.433 16.6083C353.334 16.918 352.245 16.0987 352.245 14.9598V11.0434C352.245 10.2741 352.755 9.60477 353.494 9.39496L384.235 0.613092C384.545 0.523175 384.875 0.523175 385.175 0.613092L415.916 9.39496C416.655 9.60477 417.165 10.2841 417.165 11.0434Z" fill="#E8FFE3"/>
<path d="M417.165 24.4612V28.3875C417.165 29.5265 416.076 30.3557 414.977 30.036L385.175 21.5239C384.865 21.434 384.535 21.434 384.235 21.5239L354.433 30.036C353.334 30.3457 352.245 29.5265 352.245 28.3875V24.4612C352.245 23.6919 352.755 23.0225 353.494 22.8127L384.235 14.0408C384.545 13.9509 384.875 13.9509 385.175 14.0408L415.916 22.8127C416.655 23.0225 417.165 23.7019 417.165 24.4612Z" fill="#B09300"/>
<path d="M388.451 28.6372V37.5189C388.451 38.6479 387.382 39.4671 386.283 39.1774L385.144 38.8677C384.855 38.7878 384.545 38.7878 384.255 38.8677L383.116 39.1774C382.027 39.4671 380.948 38.6479 380.948 37.5189V28.6372C380.948 27.8579 381.468 27.1785 382.217 26.9787L384.245 26.4292C384.535 26.3493 384.845 26.3493 385.134 26.4292L387.162 26.9787C387.912 27.1785 388.431 27.8579 388.431 28.6372H388.451Z" fill="#B09300"/>
<path d="M395.395 52.535V56.4714C395.395 57.6003 394.326 58.4196 393.237 58.1298L385.154 55.9619C384.864 55.8819 384.555 55.8819 384.265 55.9619L375.833 58.2198C374.744 58.5095 373.675 57.6902 373.675 56.5613V52.6249C373.675 51.8457 374.194 51.1663 374.954 50.9665L379.699 49.6976C380.449 49.4978 380.978 48.8185 380.978 48.0392V44.7322C380.978 43.953 381.498 43.2736 382.247 43.0738L384.275 42.5243C384.565 42.4444 384.874 42.4444 385.164 42.5243L387.192 43.0738C387.942 43.2736 388.461 43.953 388.461 44.7322V48.0392C388.461 48.8185 388.981 49.4978 389.73 49.6976L394.126 50.8766C394.875 51.0764 395.395 51.7557 395.395 52.535Z" fill="#E8FFE3"/>
<path d="M377.402 30.5155V45.5016C377.402 46.2809 376.882 46.9603 376.133 47.1601L365.463 50.0174C364.374 50.3072 363.305 49.4879 363.305 48.359V44.4226C363.305 43.6433 363.824 42.964 364.573 42.7642L368.64 41.6752C369.389 41.4753 369.909 40.796 369.909 40.0167C369.909 38.8877 368.84 38.0685 367.751 38.3582L354.413 41.9349C353.324 42.2246 352.255 41.4054 352.255 40.2765V36.3401C352.255 35.5608 352.774 34.8815 353.524 34.6816L375.244 28.857C376.333 28.5673 377.402 29.3865 377.402 30.5155Z" fill="#E8FFE3"/>
<path d="M368.62 52.6551L364.564 53.7441C363.814 53.9439 363.295 54.6233 363.295 55.4026V59.3389C363.295 60.4679 364.364 61.2871 365.453 60.9974L369.509 59.9084C370.258 59.7086 370.778 59.0292 370.778 58.2499V54.3136C370.778 53.1846 369.709 52.3654 368.62 52.6551Z" fill="#E8FFE3"/>
<path d="M359.738 61.207V46.4507C359.738 45.3217 358.669 44.5025 357.58 44.7922L353.524 45.8812C352.774 46.081 352.255 46.7604 352.255 47.5397V62.296C352.255 63.425 353.324 64.2442 354.413 63.9545L358.469 62.8655C359.218 62.6657 359.738 61.9863 359.738 61.207Z" fill="#E8FFE3"/>
<path d="M400.161 40.1866C400.161 40.9659 400.681 41.6453 401.43 41.8451L405.496 42.9341C406.246 43.1339 406.765 43.8133 406.765 44.5925V48.5289C406.765 49.6579 405.696 50.4771 404.607 50.1874L393.927 47.33C393.178 47.1302 392.658 46.4508 392.658 45.6715V30.6854C392.658 29.5565 393.727 28.7372 394.816 29.027L405.496 31.8843C406.246 32.0841 406.765 32.7635 406.765 33.5428V37.4791C406.765 38.6081 405.696 39.4273 404.607 39.1376L402.319 38.5282C401.23 38.2384 400.161 39.0577 400.161 40.1866Z" fill="#E8FFE3"/>
<path d="M417.165 36.3301V62.296C417.165 63.425 416.096 64.2442 415.007 63.9545L410.95 62.8655C410.201 62.6657 409.682 61.9863 409.682 61.207V35.2411C409.682 34.1121 410.751 33.2929 411.84 33.5826L415.896 34.6716C416.645 34.8714 417.165 35.5508 417.165 36.3301Z" fill="#E8FFE3"/>
<path d="M406.775 55.5823V59.5186C406.775 60.6476 405.706 61.4668 404.617 61.1771L400.561 60.0881C399.812 59.8883 399.292 59.2089 399.292 58.4296V54.4933C399.292 53.3643 400.361 52.5451 401.45 52.8348L405.506 53.9238C406.256 54.1236 406.775 54.803 406.775 55.5823Z" fill="#B09300"/>
<path d="M500.817 54.3078C504.326 54.9343 507.301 56.7824 509.745 59.8521C512.188 62.9218 513.409 66.3988 513.409 70.2829C513.409 73.6033 512.532 76.6103 510.778 79.3042C509.087 81.9354 506.612 84.0341 503.355 85.6003C500.097 87.1038 496.307 87.8556 491.984 87.8556H465.86V22.5454H490.762C495.21 22.5454 499.032 23.2972 502.227 24.8007C505.422 26.3043 507.834 28.3403 509.463 30.9089C511.091 33.4148 511.906 36.2339 511.906 39.3663C511.906 43.1252 510.904 46.2575 508.899 48.7635C506.894 51.2694 504.2 53.1175 500.817 54.3078ZM476.573 49.9851H489.823C493.331 49.9851 496.056 49.202 497.998 47.6358C500.003 46.007 501.005 43.689 501.005 40.6819C501.005 37.7375 500.003 35.4508 497.998 33.822C496.056 32.1305 493.331 31.2848 489.823 31.2848H476.573V49.9851ZM491.044 79.1162C494.678 79.1162 497.528 78.2392 499.596 76.485C501.663 74.7309 502.697 72.2876 502.697 69.1553C502.697 65.9602 501.6 63.423 499.408 61.5436C497.215 59.6641 494.302 58.7244 490.668 58.7244H476.573V79.1162H491.044ZM535.764 22.5454V87.8556H525.051V22.5454H535.764ZM530.407 15.9674C528.841 15.9674 527.494 15.4349 526.366 14.3699C525.301 13.2422 524.769 11.8953 524.769 10.3291C524.769 8.76293 525.301 7.44733 526.366 6.38232C527.494 5.25466 528.841 4.69083 530.407 4.69083C531.973 4.69083 533.289 5.25466 534.354 6.38232C535.482 7.44733 536.046 8.76293 536.046 10.3291C536.046 11.8953 535.482 13.2422 534.354 14.3699C533.289 15.4349 531.973 15.9674 530.407 15.9674ZM583.752 87.8556L568.717 61.7315H560.541V87.8556H549.829V22.5454H572.382C577.393 22.5454 581.622 23.4225 585.068 25.1766C588.576 26.9307 591.176 29.28 592.867 32.2245C594.622 35.1689 595.499 38.4579 595.499 42.0915C595.499 46.3515 594.246 50.2357 591.74 53.7439C589.297 57.1896 585.506 59.5389 580.369 60.7918L596.532 87.8556H583.752ZM560.541 53.1801H572.382C576.391 53.1801 579.398 52.1778 581.403 50.173C583.47 48.1683 584.504 45.4745 584.504 42.0915C584.504 38.7085 583.502 36.0773 581.497 34.1979C579.492 32.2558 576.454 31.2848 572.382 31.2848H560.541V53.1801ZM643.127 87.8556L628.091 61.7315H619.916V87.8556H609.203V22.5454H631.756C636.768 22.5454 640.997 23.4225 644.442 25.1766C647.951 26.9307 650.551 29.28 652.242 32.2245C653.996 35.1689 654.873 38.4579 654.873 42.0915C654.873 46.3515 653.62 50.2357 651.114 53.7439C648.671 57.1896 644.881 59.5389 639.744 60.7918L655.907 87.8556H643.127ZM619.916 53.1801H631.756C635.766 53.1801 638.773 52.1778 640.777 50.173C642.845 48.1683 643.879 45.4745 643.879 42.0915C643.879 38.7085 642.876 36.0773 640.871 34.1979C638.867 32.2558 635.828 31.2848 631.756 31.2848H619.916V53.1801Z" fill="#E8FFE3"/>
<path d="M49.6107 23.5027V32.242H32.226V88.8129H21.5132V32.242H4.03452V23.5027H49.6107ZM71.1727 32.1481V51.3182H93.7259V60.0576H71.1727V80.0735H96.545V88.8129H60.46V23.4087H96.545V32.1481H71.1727ZM106.169 56.0168C106.169 49.6268 107.641 43.8945 110.586 38.82C113.593 33.7456 117.634 29.7988 122.708 26.9796C127.845 24.0978 133.452 22.6569 139.529 22.6569C146.483 22.6569 152.654 24.3798 158.041 27.8254C163.492 31.2083 167.438 36.0322 169.882 42.297H157.008C155.316 38.8514 152.967 36.2828 149.96 34.5913C146.953 32.8998 143.476 32.0541 139.529 32.0541C135.206 32.0541 131.353 33.0251 127.97 34.9672C124.587 36.9093 121.925 39.6971 119.983 43.3307C118.103 46.9642 117.164 51.193 117.164 56.0168C117.164 60.8407 118.103 65.0694 119.983 68.703C121.925 72.3365 124.587 75.1557 127.97 77.1604C131.353 79.1025 135.206 80.0735 139.529 80.0735C143.476 80.0735 146.953 79.2278 149.96 77.5363C152.967 75.8448 155.316 73.2762 157.008 69.8306H169.882C167.438 76.0954 163.492 80.9193 158.041 84.3022C152.654 87.6852 146.483 89.3767 139.529 89.3767C133.389 89.3767 127.782 87.9671 122.708 85.148C117.634 82.2662 113.593 78.2881 110.586 73.2136C107.641 68.1391 106.169 62.4069 106.169 56.0168ZM234.575 23.5027V88.8129H223.862V60.2455H193.134V88.8129H182.421V23.5027H193.134V51.5062H223.862V23.5027H234.575Z" fill="#E8FFE3"/>
</svg>
