<svg width="663" height="120" viewBox="0 0 663 120" fill="none" xmlns="http://www.w3.org/2000/svg">
<path d="M322.791 75.3706C308.084 56.1052 311.487 28.2659 330.385 13.0873C334.645 9.66725 339.341 7.14638 344.24 5.5053C345.451 5.10312 345.174 3.30933 343.9 3.2697C330.308 2.84306 316.502 7.18708 305.173 16.5608C281.137 36.4489 277.226 72.2269 296.401 96.8392C315.575 121.452 353.175 126.663 378.381 106.497C389.569 97.5417 396.576 85.2798 399.083 72.217C399.325 70.9622 397.636 70.3155 396.97 71.4123C394.311 75.8103 390.844 79.8167 386.6 83.2127C366.947 98.9398 338.143 95.4898 322.791 75.3706Z" fill="#711F44"/>
<path d="M417.539 11.9045V15.8209C417.539 16.9598 416.45 17.7891 415.351 17.4694L385.549 8.96724C385.239 8.87732 384.909 8.87732 384.61 8.96724L354.807 17.4694C353.708 17.7791 352.619 16.9598 352.619 15.8209V11.9045C352.619 11.1352 353.129 10.4658 353.868 10.256L384.61 1.47418C384.919 1.38426 385.249 1.38426 385.549 1.47418L416.29 10.256C417.029 10.4658 417.539 11.1452 417.539 11.9045Z" fill="#711F44"/>
<path d="M417.539 25.322V29.2484C417.539 30.3873 416.45 31.2166 415.351 30.8969L385.549 22.3847C385.239 22.2948 384.909 22.2948 384.61 22.3847L354.807 30.8969C353.708 31.2066 352.619 30.3873 352.619 29.2484V25.322C352.619 24.5527 353.129 23.8833 353.868 23.6735L384.61 14.9017C384.919 14.8117 385.249 14.8117 385.549 14.9017L416.29 23.6735C417.029 23.8833 417.539 24.5627 417.539 25.322Z" fill="#B09300"/>
<path d="M388.825 29.498V38.3798C388.825 39.5087 387.756 40.328 386.657 40.0382L385.518 39.7285C385.229 39.6486 384.919 39.6486 384.629 39.7285L383.49 40.0382C382.401 40.328 381.322 39.5087 381.322 38.3798V29.498C381.322 28.7187 381.842 28.0393 382.591 27.8395L384.619 27.29C384.909 27.2101 385.219 27.2101 385.508 27.29L387.537 27.8395C388.286 28.0393 388.805 28.7187 388.805 29.498H388.825Z" fill="#B09300"/>
<path d="M395.769 53.3959V57.3322C395.769 58.4612 394.7 59.2804 393.611 58.9907L385.528 56.8227C385.238 56.7428 384.929 56.7428 384.639 56.8227L376.207 59.0806C375.118 59.3703 374.049 58.5511 374.049 57.4221V53.4858C374.049 52.7065 374.568 52.0271 375.328 51.8273L380.073 50.5585C380.823 50.3587 381.352 49.6793 381.352 48.9V45.5931C381.352 44.8138 381.872 44.1344 382.621 43.9346L384.649 43.3851C384.939 43.3052 385.248 43.3052 385.538 43.3851L387.566 43.9346C388.316 44.1344 388.835 44.8138 388.835 45.5931V48.9C388.835 49.6793 389.355 50.3587 390.104 50.5585L394.5 51.7374C395.249 51.9372 395.769 52.6166 395.769 53.3959Z" fill="#711F44"/>
<path d="M377.776 31.3762V46.3623C377.776 47.1416 377.256 47.821 376.507 48.0208L365.837 50.8782C364.748 51.1679 363.679 50.3486 363.679 49.2197V45.2833C363.679 44.5041 364.198 43.8247 364.948 43.6249L369.014 42.5359C369.763 42.3361 370.283 41.6567 370.283 40.8774C370.283 39.7485 369.214 38.9292 368.125 39.2189L354.787 42.7956C353.698 43.0854 352.629 42.2661 352.629 41.1372V37.2008C352.629 36.4215 353.148 35.7422 353.898 35.5424L375.618 29.7177C376.707 29.428 377.776 30.2473 377.776 31.3762Z" fill="#711F44"/>
<path d="M368.994 53.5158L364.938 54.6048C364.188 54.8046 363.669 55.484 363.669 56.2633V60.1996C363.669 61.3286 364.738 62.1478 365.827 61.8581L369.883 60.7691C370.632 60.5693 371.152 59.8899 371.152 59.1107V55.1743C371.152 54.0453 370.083 53.2261 368.994 53.5158Z" fill="#711F44"/>
<path d="M360.112 62.0679V47.3115C360.112 46.1826 359.043 45.3633 357.954 45.6531L353.898 46.7421C353.148 46.9419 352.629 47.6212 352.629 48.4005V63.1568C352.629 64.2858 353.698 65.105 354.787 64.8153L358.843 63.7263C359.592 63.5265 360.112 62.8471 360.112 62.0679Z" fill="#711F44"/>
<path d="M400.535 41.0473C400.535 41.8266 401.055 42.506 401.804 42.7058L405.87 43.7948C406.62 43.9946 407.139 44.674 407.139 45.4533V49.3896C407.139 50.5186 406.07 51.3378 404.981 51.0481L394.301 48.1907C393.552 47.9909 393.032 47.3115 393.032 46.5323V31.5461C393.032 30.4172 394.101 29.5979 395.19 29.8877L405.87 32.745C406.62 32.9448 407.139 33.6242 407.139 34.4035V38.3399C407.139 39.4688 406.07 40.288 404.981 39.9983L402.693 39.3889C401.604 39.0992 400.535 39.9184 400.535 41.0473Z" fill="#711F44"/>
<path d="M417.539 37.1909V63.1569C417.539 64.2858 416.47 65.1051 415.381 64.8153L411.324 63.7264C410.575 63.5265 410.056 62.8472 410.056 62.0679V36.1019C410.056 34.973 411.125 34.1537 412.214 34.4435L416.27 35.5325C417.019 35.7323 417.539 36.4116 417.539 37.1909Z" fill="#711F44"/>
<path d="M407.149 56.4429V60.3792C407.149 61.5082 406.08 62.3274 404.991 62.0377L400.935 60.9487C400.186 60.7489 399.666 60.0695 399.666 59.2902V55.3539C399.666 54.2249 400.735 53.4057 401.824 53.6954L405.88 54.7844C406.63 54.9842 407.149 55.6636 407.149 56.4429Z" fill="#B09300"/>
<path d="M501.192 55.1687C504.701 55.7952 507.676 57.6433 510.12 60.7131C512.563 63.7828 513.784 67.2597 513.784 71.1439C513.784 74.4642 512.907 77.4713 511.153 80.1651C509.462 82.7963 506.987 84.895 503.73 86.4612C500.472 87.9648 496.682 88.7166 492.359 88.7166H466.235V23.4064H491.137C495.585 23.4064 499.407 24.1581 502.602 25.6617C505.797 27.1652 508.209 29.2013 509.838 31.7698C511.466 34.2757 512.281 37.0949 512.281 40.2273C512.281 43.9861 511.279 47.1185 509.274 49.6244C507.269 52.1303 504.575 53.9784 501.192 55.1687ZM476.948 50.846H490.198C493.706 50.846 496.431 50.063 498.373 48.4968C500.378 46.8679 501.38 44.55 501.38 41.5429C501.38 38.5984 500.378 36.3118 498.373 34.683C496.431 32.9915 493.706 32.1457 490.198 32.1457H476.948V50.846ZM491.419 79.9772C495.053 79.9772 497.903 79.1001 499.971 77.346C502.038 75.5919 503.072 73.1486 503.072 70.0162C503.072 66.8212 501.975 64.284 499.783 62.4045C497.59 60.5251 494.677 59.5854 491.043 59.5854H476.948V79.9772H491.419ZM536.139 23.4064V88.7166H525.426V23.4064H536.139ZM530.782 16.8284C529.216 16.8284 527.869 16.2959 526.741 15.2309C525.676 14.1032 525.144 12.7563 525.144 11.1901C525.144 9.62389 525.676 8.30829 526.741 7.24328C527.869 6.11562 529.216 5.55179 530.782 5.55179C532.348 5.55179 533.664 6.11562 534.729 7.24328C535.857 8.30829 536.421 9.62389 536.421 11.1901C536.421 12.7563 535.857 14.1032 534.729 15.2309C533.664 16.2959 532.348 16.8284 530.782 16.8284ZM584.127 88.7166L569.092 62.5925H560.916V88.7166H550.204V23.4064H572.757C577.768 23.4064 581.997 24.2834 585.443 26.0376C588.951 27.7917 591.551 30.141 593.242 33.0854C594.997 36.0299 595.874 39.3189 595.874 42.9524C595.874 47.2125 594.621 51.0966 592.115 54.6049C589.672 58.0505 585.881 60.3998 580.744 61.6528L596.907 88.7166H584.127ZM560.916 54.0411H572.757C576.766 54.0411 579.773 53.0387 581.778 51.034C583.845 49.0293 584.879 46.3354 584.879 42.9524C584.879 39.5695 583.877 36.9383 581.872 35.0588C579.867 33.1168 576.829 32.1457 572.757 32.1457H560.916V54.0411ZM643.502 88.7166L628.466 62.5925H620.291V88.7166H609.578V23.4064H632.131C637.143 23.4064 641.372 24.2834 644.817 26.0376C648.326 27.7917 650.926 30.141 652.617 33.0854C654.371 36.0299 655.248 39.3189 655.248 42.9524C655.248 47.2125 653.995 51.0966 651.489 54.6049C649.046 58.0505 645.256 60.3998 640.119 61.6528L656.282 88.7166H643.502ZM620.291 54.0411H632.131C636.141 54.0411 639.148 53.0387 641.152 51.034C643.22 49.0293 644.254 46.3354 644.254 42.9524C644.254 39.5695 643.251 36.9383 641.246 35.0588C639.242 33.1168 636.203 32.1457 632.131 32.1457H620.291V54.0411Z" fill="#711F44"/>
<path d="M49.9857 24.3635V33.1029H32.601V89.6737H21.8882V33.1029H4.40952V24.3635H49.9857ZM71.5477 33.0089V52.1791H94.1009V60.9184H71.5477V80.9344H96.92V89.6737H60.835V24.2696H96.92V33.0089H71.5477ZM106.544 56.8777C106.544 50.4876 108.016 44.7553 110.961 39.6809C113.968 34.6064 118.009 30.6596 123.083 27.8405C128.22 24.9587 133.827 23.5178 139.904 23.5178C146.858 23.5178 153.029 25.2406 158.416 28.6862C163.867 32.0692 167.813 36.8931 170.257 43.1578H157.383C155.691 39.7122 153.342 37.1437 150.335 35.4522C147.328 33.7607 143.851 32.9149 139.904 32.9149C135.581 32.9149 131.728 33.886 128.345 35.8281C124.962 37.7701 122.3 40.5579 120.358 44.1915C118.478 47.8251 117.539 52.0538 117.539 56.8777C117.539 61.7015 118.478 65.9302 120.358 69.5638C122.3 73.1974 124.962 76.0165 128.345 78.0212C131.728 79.9633 135.581 80.9344 139.904 80.9344C143.851 80.9344 147.328 80.0886 150.335 78.3971C153.342 76.7056 155.691 74.1371 157.383 70.6915H170.257C167.813 76.9562 163.867 81.7801 158.416 85.1631C153.029 88.546 146.858 90.2375 139.904 90.2375C133.764 90.2375 128.157 88.828 123.083 86.0088C118.009 83.127 113.968 79.1489 110.961 74.0744C108.016 69 106.544 63.2677 106.544 56.8777ZM234.95 24.3635V89.6737H224.237V61.1064H193.509V89.6737H182.796V24.3635H193.509V52.367H224.237V24.3635H234.95Z" fill="#711F44"/>
</svg>
