<svg width="663" height="119" viewBox="0 0 663 119" fill="none" xmlns="http://www.w3.org/2000/svg">
<path d="M323.028 74.9151C308.322 55.6497 311.724 27.8104 330.623 12.6317C334.883 9.21168 339.579 6.69082 344.478 5.04974C345.688 4.64755 345.411 2.85376 344.138 2.81413C330.546 2.3875 316.739 6.73151 305.41 16.1052C281.374 35.9934 277.464 71.7713 296.638 96.3837C315.812 120.996 353.412 126.208 378.619 106.042C389.806 97.0862 396.814 84.8243 399.32 71.7615C399.562 70.5067 397.873 69.8599 397.208 70.9567C394.549 75.3547 391.082 79.3612 386.837 82.7572C367.184 98.4842 338.38 95.0342 323.028 74.9151Z" fill="#E8FFE3"/>
<path d="M417.777 11.4487V15.3651C417.777 16.504 416.688 17.3333 415.589 17.0136L385.786 8.51143C385.477 8.42151 385.147 8.42151 384.847 8.51143L355.045 17.0136C353.946 17.3233 352.857 16.504 352.857 15.3651V11.4487C352.857 10.6794 353.366 10.01 354.106 9.80023L384.847 1.01837C385.157 0.928449 385.487 0.928449 385.786 1.01837L416.528 9.80023C417.267 10.01 417.777 10.6894 417.777 11.4487Z" fill="#E8FFE3"/>
<path d="M417.777 24.8665V28.7928C417.777 29.9318 416.688 30.761 415.589 30.4413L385.786 21.9292C385.477 21.8393 385.147 21.8393 384.847 21.9292L355.045 30.4413C353.946 30.751 352.857 29.9318 352.857 28.7928V24.8665C352.857 24.0972 353.366 23.4278 354.106 23.218L384.847 14.4461C385.157 14.3562 385.487 14.3562 385.786 14.4461L416.528 23.218C417.267 23.4278 417.777 24.1072 417.777 24.8665Z" fill="#B09300"/>
<path d="M389.064 29.0425V37.9243C389.064 39.0533 387.995 39.8725 386.896 39.5828L385.757 39.2731C385.467 39.1932 385.157 39.1932 384.867 39.2731L383.729 39.5828C382.64 39.8725 381.561 39.0533 381.561 37.9243V29.0425C381.561 28.2633 382.08 27.5839 382.829 27.3841L384.858 26.8346C385.147 26.7547 385.457 26.7547 385.747 26.8346L387.775 27.3841C388.524 27.5839 389.044 28.2633 389.044 29.0425H389.064Z" fill="#B09300"/>
<path d="M396.007 52.9403V56.8766C396.007 58.0056 394.938 58.8248 393.849 58.5351L385.767 56.3671C385.477 56.2872 385.167 56.2872 384.877 56.3671L376.445 58.625C375.356 58.9148 374.287 58.0955 374.287 56.9666V53.0302C374.287 52.2509 374.807 51.5716 375.566 51.3718L380.312 50.1029C381.061 49.9031 381.59 49.2237 381.59 48.4445V45.1375C381.59 44.3582 382.11 43.6789 382.859 43.4791L384.887 42.9296C385.177 42.8496 385.487 42.8496 385.776 42.9296L387.805 43.4791C388.554 43.6789 389.073 44.3582 389.073 45.1375V48.4445C389.073 49.2237 389.593 49.9031 390.342 50.1029L394.738 51.2818C395.487 51.4817 396.007 52.161 396.007 52.9403Z" fill="#E8FFE3"/>
<path d="M378.014 30.9208V45.9069C378.014 46.6862 377.494 47.3655 376.745 47.5654L366.075 50.4227C364.986 50.7124 363.917 49.8932 363.917 48.7642V44.8279C363.917 44.0486 364.436 43.3692 365.186 43.1694L369.252 42.0804C370.001 41.8806 370.521 41.2012 370.521 40.422C370.521 39.293 369.452 38.4738 368.363 38.7635L355.025 42.3402C353.936 42.6299 352.867 41.8107 352.867 40.6817V36.7454C352.867 35.9661 353.387 35.2867 354.136 35.0869L375.856 29.2623C376.945 28.9726 378.014 29.7918 378.014 30.9208Z" fill="#E8FFE3"/>
<path d="M369.232 53.0604L365.176 54.1494C364.427 54.3492 363.907 55.0286 363.907 55.8079V59.7442C363.907 60.8732 364.976 61.6924 366.065 61.4027L370.121 60.3137C370.871 60.1139 371.39 59.4345 371.39 58.6552V54.7189C371.39 53.5899 370.321 52.7707 369.232 53.0604Z" fill="#E8FFE3"/>
<path d="M360.349 61.6124V46.8561C360.349 45.7271 359.28 44.9079 358.191 45.1976L354.135 46.2866C353.386 46.4864 352.866 47.1658 352.866 47.9451V62.7014C352.866 63.8304 353.935 64.6496 355.024 64.3599L359.08 63.2709C359.83 63.0711 360.349 62.3917 360.349 61.6124Z" fill="#E8FFE3"/>
<path d="M400.774 40.5919C400.774 41.3712 401.293 42.0505 402.042 42.2504L406.109 43.3393C406.858 43.5392 407.377 44.2185 407.377 44.9978V48.9342C407.377 50.0631 406.308 50.8824 405.219 50.5926L394.539 47.7353C393.79 47.5355 393.271 46.8561 393.271 46.0768V31.0907C393.271 29.9617 394.34 29.1425 395.429 29.4322L406.109 32.2896C406.858 32.4894 407.377 33.1688 407.377 33.9481V37.8844C407.377 39.0134 406.308 39.8326 405.219 39.5429L402.932 38.9334C401.843 38.6437 400.774 39.4629 400.774 40.5919Z" fill="#E8FFE3"/>
<path d="M417.777 36.7353V62.7013C417.777 63.8303 416.708 64.6495 415.619 64.3598L411.563 63.2708C410.813 63.071 410.294 62.3916 410.294 61.6123V35.6464C410.294 34.5174 411.363 33.6982 412.452 33.9879L416.508 35.0769C417.257 35.2767 417.777 35.9561 417.777 36.7353Z" fill="#E8FFE3"/>
<path d="M407.387 55.9875V59.9239C407.387 61.0529 406.318 61.8721 405.229 61.5824L401.173 60.4934C400.423 60.2936 399.904 59.6142 399.904 58.8349V54.8986C399.904 53.7696 400.973 52.9504 402.062 53.2401L406.118 54.3291C406.867 54.5289 407.387 55.2083 407.387 55.9875Z" fill="#B09300"/>
<path d="M501.43 54.7129C504.938 55.3394 507.914 57.1875 510.357 60.2572C512.8 63.327 514.022 66.8039 514.022 70.6881C514.022 74.0084 513.145 77.0155 511.391 79.7093C509.699 82.3405 507.224 84.4392 503.967 86.0054C500.709 87.509 496.919 88.2607 492.596 88.2607H466.472V22.9506H491.375C495.823 22.9506 499.644 23.7023 502.839 25.2059C506.034 26.7094 508.446 28.7455 510.075 31.314C511.704 33.8199 512.518 36.6391 512.518 39.7715C512.518 43.5303 511.516 46.6627 509.511 49.1686C507.506 51.6745 504.813 53.5226 501.43 54.7129ZM477.185 50.3902H490.435C493.943 50.3902 496.668 49.6071 498.61 48.0409C500.615 46.4121 501.618 44.0941 501.618 41.0871C501.618 38.1426 500.615 35.856 498.61 34.2271C496.668 32.5357 493.943 31.6899 490.435 31.6899H477.185V50.3902ZM491.657 79.5214C495.29 79.5214 498.141 78.6443 500.208 76.8902C502.275 75.1361 503.309 72.6928 503.309 69.5604C503.309 66.3654 502.213 63.8282 500.02 61.9487C497.827 60.0693 494.914 59.1296 491.281 59.1296H477.185V79.5214H491.657ZM536.376 22.9506V88.2607H525.663V22.9506H536.376ZM531.02 16.3726C529.453 16.3726 528.106 15.8401 526.979 14.775C525.914 13.6474 525.381 12.3005 525.381 10.7343C525.381 9.16808 525.914 7.85248 526.979 6.78747C528.106 5.65981 529.453 5.09598 531.02 5.09598C532.586 5.09598 533.901 5.65981 534.966 6.78747C536.094 7.85248 536.658 9.16808 536.658 10.7343C536.658 12.3005 536.094 13.6474 534.966 14.775C533.901 15.8401 532.586 16.3726 531.02 16.3726ZM584.365 88.2607L569.329 62.1367H561.154V88.2607H550.441V22.9506H572.994C578.006 22.9506 582.235 23.8276 585.68 25.5818C589.188 27.3359 591.788 29.6852 593.48 32.6296C595.234 35.5741 596.111 38.8631 596.111 42.4966C596.111 46.7567 594.858 50.6408 592.352 54.1491C589.909 57.5947 586.119 59.944 580.982 61.197L597.145 88.2607H584.365ZM561.154 53.5853H572.994C577.003 53.5853 580.011 52.5829 582.015 50.5782C584.083 48.5735 585.116 45.8796 585.116 42.4966C585.116 39.1137 584.114 36.4825 582.109 34.603C580.104 32.6609 577.066 31.6899 572.994 31.6899H561.154V53.5853ZM643.739 88.2607L628.704 62.1367H620.528V88.2607H609.815V22.9506H632.369C637.38 22.9506 641.609 23.8276 645.055 25.5818C648.563 27.3359 651.163 29.6852 652.854 32.6296C654.608 35.5741 655.486 38.8631 655.486 42.4966C655.486 46.7567 654.233 50.6408 651.727 54.1491C649.283 57.5947 645.493 59.944 640.356 61.197L656.519 88.2607H643.739ZM620.528 53.5853H632.369C636.378 53.5853 639.385 52.5829 641.39 50.5782C643.457 48.5735 644.491 45.8796 644.491 42.4966C644.491 39.1137 643.488 36.4825 641.484 34.603C639.479 32.6609 636.441 31.6899 632.369 31.6899H620.528V53.5853Z" fill="#E8FFE3"/>
<path d="M50.223 23.9078V32.6472H32.8383V89.218H22.1255V32.6472H4.64682V23.9078H50.223ZM71.785 32.5532V51.7234H94.3382V60.4627H71.785V80.4787H97.1573V89.218H61.0723V23.8139H97.1573V32.5532H71.785ZM106.781 56.422C106.781 50.0319 108.254 44.2997 111.198 39.2252C114.205 34.1507 118.246 30.2039 123.32 27.3848C128.457 24.503 134.064 23.0621 140.141 23.0621C147.095 23.0621 153.266 24.7849 158.654 28.2305C164.104 31.6135 168.051 36.4374 170.494 42.7021H157.62C155.928 39.2565 153.579 36.688 150.572 34.9965C147.565 33.305 144.088 32.4592 140.141 32.4592C135.819 32.4592 131.966 33.4303 128.583 35.3724C125.2 37.3144 122.537 40.1023 120.595 43.7358C118.716 47.3694 117.776 51.5981 117.776 56.422C117.776 61.2458 118.716 65.4746 120.595 69.1081C122.537 72.7417 125.2 75.5608 128.583 77.5656C131.966 79.5076 135.819 80.4787 140.141 80.4787C144.088 80.4787 147.565 79.6329 150.572 77.9414C153.579 76.25 155.928 73.6814 157.62 70.2358H170.494C168.051 76.5005 164.104 81.3244 158.654 84.7074C153.266 88.0904 147.095 89.7818 140.141 89.7818C134.002 89.7818 128.395 88.3723 123.32 85.5531C118.246 82.6713 114.205 78.6932 111.198 73.6188C108.254 68.5443 106.781 62.812 106.781 56.422ZM235.187 23.9078V89.218H224.475V60.6507H193.746V89.218H183.033V23.9078H193.746V51.9113H224.475V23.9078H235.187Z" fill="#E8FFE3"/>
</svg>
