<svg width="663" height="120" viewBox="0 0 663 120" fill="none" xmlns="http://www.w3.org/2000/svg">
<path d="M322.791 75.3706C308.084 56.1052 311.487 28.2659 330.385 13.0873C334.645 9.66725 339.341 7.14638 344.24 5.5053C345.451 5.10312 345.174 3.30933 343.9 3.2697C330.308 2.84306 316.502 7.18708 305.173 16.5608C281.137 36.4489 277.226 72.2269 296.401 96.8392C315.575 121.452 353.175 126.663 378.381 106.497C389.569 97.5417 396.576 85.2798 399.083 72.217C399.325 70.9622 397.636 70.3155 396.97 71.4123C394.311 75.8103 390.844 79.8167 386.6 83.2127C366.947 98.9398 338.143 95.4898 322.791 75.3706Z" fill="#711F44"/>
<path d="M417.539 11.9045V15.8209C417.539 16.9598 416.45 17.7891 415.352 17.4694L385.549 8.96724C385.239 8.87732 384.91 8.87732 384.61 8.96724L354.808 17.4694C353.709 17.7791 352.62 16.9598 352.62 15.8209V11.9045C352.62 11.1352 353.129 10.4658 353.868 10.256L384.61 1.47418C384.92 1.38426 385.249 1.38426 385.549 1.47418L416.291 10.256C417.03 10.4658 417.539 11.1452 417.539 11.9045Z" fill="#711F44"/>
<path d="M417.539 25.322V29.2484C417.539 30.3873 416.45 31.2166 415.352 30.8969L385.549 22.3847C385.239 22.2948 384.91 22.2948 384.61 22.3847L354.808 30.8969C353.709 31.2066 352.62 30.3873 352.62 29.2484V25.322C352.62 24.5527 353.129 23.8833 353.868 23.6735L384.61 14.9017C384.92 14.8117 385.249 14.8117 385.549 14.9017L416.291 23.6735C417.03 23.8833 417.539 24.5627 417.539 25.322Z" fill="#B09300"/>
<path d="M388.826 29.4981V38.3799C388.826 39.5088 387.757 40.3281 386.658 40.0384L385.519 39.7286C385.229 39.6487 384.919 39.6487 384.63 39.7286L383.491 40.0384C382.402 40.3281 381.323 39.5088 381.323 38.3799V29.4981C381.323 28.7188 381.842 28.0395 382.592 27.8396L384.62 27.2902C384.909 27.2102 385.219 27.2102 385.509 27.2902L387.537 27.8396C388.286 28.0395 388.806 28.7188 388.806 29.4981H388.826Z" fill="#B09300"/>
<path d="M395.77 53.3959V57.3322C395.77 58.4612 394.701 59.2804 393.612 58.9907L385.529 56.8227C385.239 56.7428 384.93 56.7428 384.64 56.8227L376.208 59.0806C375.119 59.3703 374.05 58.5511 374.05 57.4221V53.4858C374.05 52.7065 374.569 52.0271 375.329 51.8273L380.074 50.5585C380.824 50.3587 381.353 49.6793 381.353 48.9V45.5931C381.353 44.8138 381.873 44.1344 382.622 43.9346L384.65 43.3851C384.94 43.3052 385.249 43.3052 385.539 43.3851L387.567 43.9346C388.317 44.1344 388.836 44.8138 388.836 45.5931V48.9C388.836 49.6793 389.356 50.3587 390.105 50.5585L394.501 51.7374C395.25 51.9372 395.77 52.6166 395.77 53.3959Z" fill="#711F44"/>
<path d="M377.776 31.3763V46.3625C377.776 47.1417 377.257 47.8211 376.507 48.0209L365.837 50.8783C364.748 51.168 363.679 50.3488 363.679 49.2198V45.2835C363.679 44.5042 364.199 43.8248 364.948 43.625L369.014 42.536C369.764 42.3362 370.283 41.6568 370.283 40.8775C370.283 39.7486 369.214 38.9293 368.125 39.2191L354.787 42.7958C353.698 43.0855 352.629 42.2663 352.629 41.1373V37.2009C352.629 36.4217 353.149 35.7423 353.898 35.5425L375.618 29.7179C376.707 29.4281 377.776 30.2474 377.776 31.3763Z" fill="#711F44"/>
<path d="M368.994 53.5157L364.938 54.6047C364.189 54.8045 363.669 55.4839 363.669 56.2632V60.1995C363.669 61.3285 364.738 62.1477 365.827 61.858L369.884 60.769C370.633 60.5692 371.152 59.8898 371.152 59.1105V55.1742C371.152 54.0452 370.083 53.226 368.994 53.5157Z" fill="#711F44"/>
<path d="M360.112 62.068V47.3116C360.112 46.1827 359.043 45.3634 357.954 45.6532L353.898 46.7422C353.148 46.942 352.629 47.6214 352.629 48.4006V63.157C352.629 64.2859 353.698 65.1052 354.787 64.8154L358.843 63.7264C359.592 63.5266 360.112 62.8473 360.112 62.068Z" fill="#711F44"/>
<path d="M400.536 41.0472C400.536 41.8265 401.056 42.5059 401.805 42.7057L405.871 43.7947C406.621 43.9945 407.14 44.6739 407.14 45.4531V49.3895C407.14 50.5184 406.071 51.3377 404.982 51.048L394.302 48.1906C393.553 47.9908 393.033 47.3114 393.033 46.5321V31.546C393.033 30.4171 394.102 29.5978 395.191 29.8875L405.871 32.7449C406.621 32.9447 407.14 33.6241 407.14 34.4034V38.3397C407.14 39.4687 406.071 40.2879 404.982 39.9982L402.694 39.3888C401.605 39.099 400.536 39.9183 400.536 41.0472Z" fill="#711F44"/>
<path d="M417.54 37.1909V63.1569C417.54 64.2858 416.471 65.1051 415.382 64.8153L411.325 63.7264C410.576 63.5265 410.057 62.8472 410.057 62.0679V36.1019C410.057 34.973 411.126 34.1537 412.215 34.4435L416.271 35.5325C417.02 35.7323 417.54 36.4116 417.54 37.1909Z" fill="#711F44"/>
<path d="M407.15 56.4429V60.3792C407.15 61.5082 406.081 62.3274 404.992 62.0377L400.935 60.9487C400.186 60.7489 399.667 60.0695 399.667 59.2902V55.3539C399.667 54.2249 400.736 53.4057 401.825 53.6954L405.881 54.7844C406.63 54.9842 407.15 55.6636 407.15 56.4429Z" fill="#B09300"/>
<path d="M501.192 55.1687C504.7 55.7952 507.676 57.6433 510.119 60.7131C512.562 63.7828 513.784 67.2597 513.784 71.1439C513.784 74.4642 512.907 77.4713 511.153 80.1651C509.461 82.7963 506.987 84.895 503.729 86.4612C500.471 87.9648 496.681 88.7166 492.358 88.7166H466.234V23.4064H491.137C495.585 23.4064 499.406 24.1581 502.601 25.6617C505.796 27.1652 508.208 29.2013 509.837 31.7698C511.466 34.2757 512.28 37.0949 512.28 40.2273C512.28 43.9861 511.278 47.1185 509.273 49.6244C507.269 52.1303 504.575 53.9784 501.192 55.1687ZM476.947 50.846H490.197C493.705 50.846 496.431 50.063 498.373 48.4968C500.377 46.8679 501.38 44.55 501.38 41.5429C501.38 38.5984 500.377 36.3118 498.373 34.683C496.431 32.9915 493.705 32.1457 490.197 32.1457H476.947V50.846ZM491.419 79.9772C495.052 79.9772 497.903 79.1001 499.97 77.346C502.038 75.5919 503.071 73.1486 503.071 70.0162C503.071 66.8212 501.975 64.284 499.782 62.4045C497.59 60.5251 494.676 59.5854 491.043 59.5854H476.947V79.9772H491.419ZM536.138 23.4064V88.7166H525.425V23.4064H536.138ZM530.782 16.8284C529.216 16.8284 527.869 16.2959 526.741 15.2309C525.676 14.1032 525.143 12.7563 525.143 11.1901C525.143 9.62389 525.676 8.30829 526.741 7.24328C527.869 6.11562 529.216 5.55179 530.782 5.55179C532.348 5.55179 533.664 6.11562 534.729 7.24328C535.856 8.30829 536.42 9.62389 536.42 11.1901C536.42 12.7563 535.856 14.1032 534.729 15.2309C533.664 16.2959 532.348 16.8284 530.782 16.8284ZM584.127 88.7166L569.091 62.5925H560.916V88.7166H550.203V23.4064H572.756C577.768 23.4064 581.997 24.2834 585.442 26.0376C588.951 27.7917 591.55 30.141 593.242 33.0854C594.996 36.0299 595.873 39.3189 595.873 42.9524C595.873 47.2125 594.62 51.0966 592.114 54.6049C589.671 58.0505 585.881 60.3998 580.744 61.6528L596.907 88.7166H584.127ZM560.916 54.0411H572.756C576.766 54.0411 579.773 53.0387 581.777 51.034C583.845 49.0293 584.879 46.3354 584.879 42.9524C584.879 39.5695 583.876 36.9383 581.871 35.0588C579.867 33.1168 576.828 32.1457 572.756 32.1457H560.916V54.0411ZM643.501 88.7166L628.466 62.5925H620.29V88.7166H609.578V23.4064H632.131C637.143 23.4064 641.371 24.2834 644.817 26.0376C648.325 27.7917 650.925 30.141 652.617 33.0854C654.371 36.0299 655.248 39.3189 655.248 42.9524C655.248 47.2125 653.995 51.0966 651.489 54.6049C649.046 58.0505 645.255 60.3998 640.118 61.6528L656.281 88.7166H643.501ZM620.29 54.0411H632.131C636.14 54.0411 639.147 53.0387 641.152 51.034C643.219 49.0293 644.253 46.3354 644.253 42.9524C644.253 39.5695 643.251 36.9383 641.246 35.0588C639.241 33.1168 636.203 32.1457 632.131 32.1457H620.29V54.0411Z" fill="#711F44"/>
<path d="M49.9857 24.3634V33.1028H32.601V89.6736H21.8882V33.1028H4.40952V24.3634H49.9857ZM71.5477 33.0088V52.179H94.1009V60.9183H71.5477V80.9342H96.92V89.6736H60.835V24.2694H96.92V33.0088H71.5477ZM106.544 56.8775C106.544 50.4875 108.016 44.7552 110.961 39.6808C113.968 34.6063 118.009 30.6595 123.083 27.8403C128.22 24.9586 133.827 23.5177 139.904 23.5177C146.858 23.5177 153.029 25.2405 158.416 28.6861C163.867 32.0691 167.813 36.8929 170.257 43.1577H157.383C155.691 39.7121 153.342 37.1435 150.335 35.452C147.328 33.7606 143.851 32.9148 139.904 32.9148C135.581 32.9148 131.728 33.8859 128.345 35.8279C124.962 37.77 122.3 40.5578 120.358 44.1914C118.478 47.825 117.539 52.0537 117.539 56.8775C117.539 61.7014 118.478 65.9301 120.358 69.5637C122.3 73.1973 124.962 76.0164 128.345 78.0211C131.728 79.9632 135.581 80.9342 139.904 80.9342C143.851 80.9342 147.328 80.0885 150.335 78.397C153.342 76.7055 155.691 74.137 157.383 70.6913H170.257C167.813 76.9561 163.867 81.78 158.416 85.163C153.029 88.5459 146.858 90.2374 139.904 90.2374C133.764 90.2374 128.157 88.8278 123.083 86.0087C118.009 83.1269 113.968 79.1488 110.961 74.0743C108.016 68.9999 106.544 63.2676 106.544 56.8775ZM234.95 24.3634V89.6736H224.237V61.1063H193.509V89.6736H182.796V24.3634H193.509V52.3669H224.237V24.3634H234.95Z" fill="#711F44"/>
</svg>
