<svg width="469" height="384" viewBox="0 0 469 384" fill="none" xmlns="http://www.w3.org/2000/svg">
<path d="M179.219 167.688C150.61 130.211 157.229 76.0554 193.992 46.5286C202.28 39.8756 211.415 34.9718 220.944 31.7794C223.299 30.9971 222.76 27.5076 220.283 27.4306C193.843 26.6006 166.985 35.051 144.946 53.2855C98.1898 91.9737 90.5829 161.572 127.883 209.45C165.182 257.328 238.325 267.466 287.358 228.238C309.122 210.817 322.753 186.964 327.629 161.553C328.099 159.112 324.814 157.854 323.519 159.987C318.347 168.543 311.602 176.336 303.346 182.943C265.115 213.536 209.083 206.825 179.219 167.688Z" fill="#E8FFE3"/>
<path d="M363.532 44.2276V51.846C363.532 54.0616 361.413 55.6747 359.276 55.0528L301.301 38.5137C300.699 38.3388 300.058 38.3388 299.475 38.5137L241.5 55.0528C239.363 55.6553 237.244 54.0616 237.244 51.846V44.2276C237.244 42.7311 238.235 41.429 239.673 41.0208L299.475 23.9376C300.077 23.7627 300.718 23.7627 301.301 23.9376L361.102 41.0208C362.541 41.429 363.532 42.7505 363.532 44.2276Z" fill="#E8FFE3"/>
<path d="M363.532 70.3284V77.9663C363.532 80.1819 361.413 81.795 359.276 81.1731L301.301 64.6145C300.699 64.4396 300.058 64.4396 299.475 64.6145L241.5 81.1731C239.363 81.7755 237.244 80.1819 237.244 77.9663V70.3284C237.244 68.8319 238.235 67.5298 239.673 67.1216L299.475 50.0578C300.077 49.8829 300.718 49.8829 301.301 50.0578L361.102 67.1216C362.541 67.5298 363.532 68.8514 363.532 70.3284Z" fill="#B09300"/>
<path d="M307.677 78.4523V95.7299C307.677 97.9261 305.597 99.5197 303.459 98.9561L301.244 98.3537C300.68 98.1982 300.078 98.1982 299.514 98.3537L297.298 98.9561C295.18 99.5197 293.081 97.9261 293.081 95.7299V78.4523C293.081 76.9364 294.092 75.6148 295.549 75.2262L299.495 74.1573C300.058 74.0018 300.661 74.0018 301.224 74.1573L305.17 75.2262C306.627 75.6148 307.638 76.9364 307.638 78.4523H307.677Z" fill="#B09300"/>
<path d="M321.184 124.941V132.598C321.184 134.794 319.104 136.388 316.986 135.824L301.263 131.607C300.699 131.451 300.097 131.451 299.533 131.607L283.13 135.999C281.012 136.563 278.932 134.969 278.932 132.773V125.115C278.932 123.6 279.943 122.278 281.42 121.889L290.651 119.421C292.109 119.032 293.139 117.711 293.139 116.195V109.762C293.139 108.246 294.15 106.924 295.607 106.536L299.553 105.467C300.116 105.311 300.719 105.311 301.282 105.467L305.227 106.536C306.685 106.924 307.696 108.246 307.696 109.762V116.195C307.696 117.711 308.706 119.032 310.164 119.421L318.715 121.714C320.173 122.103 321.184 123.425 321.184 124.941Z" fill="#E8FFE3"/>
<path d="M286.182 82.106V111.258C286.182 112.774 285.171 114.096 283.714 114.484L262.957 120.043C260.839 120.606 258.759 119.013 258.759 116.817V109.159C258.759 107.643 259.77 106.322 261.227 105.933L269.137 103.815C270.595 103.426 271.606 102.104 271.606 100.589C271.606 98.3924 269.526 96.7987 267.408 97.3623L241.462 104.32C239.344 104.884 237.264 103.29 237.264 101.094V93.4365C237.264 91.9206 238.275 90.599 239.732 90.2103L281.984 78.8798C284.102 78.3162 286.182 79.9099 286.182 82.106Z" fill="#E8FFE3"/>
<path d="M269.099 125.174L261.208 127.292C259.75 127.681 258.74 129.002 258.74 130.518V138.176C258.74 140.372 260.819 141.965 262.938 141.402L270.828 139.283C272.286 138.895 273.296 137.573 273.296 136.057V128.4C273.296 126.204 271.217 124.61 269.099 125.174Z" fill="#E8FFE3"/>
<path d="M251.82 141.81V113.105C251.82 110.908 249.74 109.315 247.622 109.878L239.731 111.997C238.274 112.385 237.263 113.707 237.263 115.223V143.928C237.263 146.124 239.343 147.718 241.461 147.154L249.352 145.036C250.809 144.647 251.82 143.326 251.82 141.81Z" fill="#E8FFE3"/>
<path d="M330.454 100.919C330.454 102.435 331.465 103.756 332.923 104.145L340.833 106.264C342.29 106.652 343.301 107.974 343.301 109.49V117.147C343.301 119.343 341.221 120.937 339.103 120.373L318.327 114.815C316.87 114.426 315.859 113.105 315.859 111.589V82.4364C315.859 80.2403 317.938 78.6466 320.057 79.2102L340.833 84.7686C342.29 85.1573 343.301 86.4789 343.301 87.9948V95.6521C343.301 97.8483 341.221 99.442 339.103 98.8783L334.652 97.6928C332.534 97.1292 330.454 98.7228 330.454 100.919Z" fill="#E8FFE3"/>
<path d="M363.531 93.4171V143.928C363.531 146.124 361.452 147.718 359.333 147.155L351.443 145.036C349.985 144.647 348.975 143.326 348.975 141.81V91.2987C348.975 89.1026 351.054 87.5089 353.173 88.0725L361.063 90.191C362.521 90.5797 363.531 91.9012 363.531 93.4171Z" fill="#E8FFE3"/>
<path d="M343.32 130.868V138.526C343.32 140.722 341.24 142.315 339.122 141.752L331.231 139.633C329.774 139.245 328.763 137.923 328.763 136.407V128.75C328.763 126.554 330.843 124.96 332.961 125.524L340.852 127.642C342.309 128.031 343.32 129.352 343.32 130.868Z" fill="#B09300"/>
<path d="M89.2243 309.431V316.297H75.5649V360.746H67.1477V316.297H53.4145V309.431H89.2243ZM106.166 316.224V331.286H123.886V338.152H106.166V353.879H126.101V360.746H97.7488V309.357H126.101V316.224H106.166ZM133.663 334.978C133.663 329.957 134.82 325.453 137.133 321.466C139.496 317.479 142.671 314.378 146.658 312.163C150.694 309.898 155.1 308.766 159.874 308.766C165.338 308.766 170.187 310.12 174.42 312.827C178.702 315.485 181.803 319.275 183.723 324.198H173.608C172.279 321.49 170.433 319.472 168.07 318.143C165.707 316.814 162.975 316.15 159.874 316.15C156.478 316.15 153.451 316.913 150.793 318.439C148.135 319.964 146.043 322.155 144.517 325.01C143.04 327.865 142.302 331.187 142.302 334.978C142.302 338.768 143.04 342.09 144.517 344.945C146.043 347.8 148.135 350.015 150.793 351.59C153.451 353.116 156.478 353.879 159.874 353.879C162.975 353.879 165.707 353.215 168.07 351.886C170.433 350.557 172.279 348.539 173.608 345.831H183.723C181.803 350.754 178.702 354.544 174.42 357.202C170.187 359.86 165.338 361.189 159.874 361.189C155.05 361.189 150.645 360.081 146.658 357.866C142.671 355.602 139.496 352.476 137.133 348.489C134.82 344.502 133.663 339.998 133.663 334.978ZM234.554 309.431V360.746H226.136V338.3H201.992V360.746H193.575V309.431H201.992V331.433H226.136V309.431H234.554ZM292.281 334.387C295.037 334.879 297.375 336.331 299.295 338.743C301.215 341.155 302.175 343.887 302.175 346.939C302.175 349.548 301.486 351.91 300.107 354.027C298.778 356.094 296.834 357.743 294.274 358.974C291.715 360.155 288.737 360.746 285.34 360.746H264.814V309.431H284.38C287.875 309.431 290.878 310.021 293.388 311.203C295.899 312.384 297.794 313.984 299.074 316.002C300.353 317.971 300.993 320.186 300.993 322.647C300.993 325.601 300.206 328.062 298.631 330.031C297.055 332 294.939 333.452 292.281 334.387ZM273.231 330.99H283.642C286.399 330.99 288.54 330.375 290.066 329.145C291.641 327.865 292.428 326.044 292.428 323.681C292.428 321.367 291.641 319.571 290.066 318.291C288.54 316.962 286.399 316.297 283.642 316.297H273.231V330.99ZM284.602 353.879C287.457 353.879 289.697 353.19 291.321 351.812C292.945 350.434 293.757 348.514 293.757 346.053C293.757 343.542 292.896 341.549 291.173 340.072C289.45 338.595 287.162 337.857 284.307 337.857H273.231V353.879H284.602ZM319.739 309.431V360.746H311.322V309.431H319.739ZM315.53 304.262C314.3 304.262 313.241 303.844 312.355 303.007C311.518 302.121 311.1 301.063 311.1 299.832C311.1 298.602 311.518 297.568 312.355 296.731C313.241 295.845 314.3 295.402 315.53 295.402C316.761 295.402 317.794 295.845 318.631 296.731C319.517 297.568 319.96 298.602 319.96 299.832C319.96 301.063 319.517 302.121 318.631 303.007C317.794 303.844 316.761 304.262 315.53 304.262ZM357.444 360.746L345.63 340.22H339.207V360.746H330.79V309.431H348.51C352.448 309.431 355.77 310.12 358.478 311.498C361.234 312.876 363.277 314.722 364.606 317.036C365.984 319.349 366.673 321.933 366.673 324.788C366.673 328.136 365.689 331.187 363.72 333.944C361.8 336.651 358.822 338.497 354.786 339.481L367.486 360.746H357.444ZM339.207 333.501H348.51C351.66 333.501 354.023 332.713 355.598 331.138C357.223 329.563 358.035 327.446 358.035 324.788C358.035 322.13 357.247 320.063 355.672 318.586C354.097 317.06 351.71 316.297 348.51 316.297H339.207V333.501ZM404.095 360.746L392.282 340.22H385.858V360.746H377.441V309.431H395.161C399.099 309.431 402.422 310.12 405.129 311.498C407.886 312.876 409.928 314.722 411.257 317.036C412.636 319.349 413.325 321.933 413.325 324.788C413.325 328.136 412.34 331.187 410.371 333.944C408.452 336.651 405.474 338.497 401.437 339.481L414.137 360.746H404.095ZM385.858 333.501H395.161C398.312 333.501 400.674 332.713 402.25 331.138C403.874 329.563 404.686 327.446 404.686 324.788C404.686 322.13 403.899 320.063 402.323 318.586C400.748 317.06 398.361 316.297 395.161 316.297H385.858V333.501Z" fill="#E8FFE3"/>
</svg>
