<svg width="303" height="271" viewBox="0 0 303 271" fill="none" xmlns="http://www.w3.org/2000/svg">
<path d="M96.2188 166.984C67.6104 129.507 74.2289 75.3521 110.992 45.8253C119.28 39.1723 128.415 34.2685 137.944 31.0761C140.299 30.2938 139.76 26.8043 137.283 26.7272C110.843 25.8973 83.9854 34.3477 61.9464 52.5822C15.1898 91.2704 7.58294 160.869 44.8826 208.747C82.1822 256.625 155.325 266.763 204.358 227.535C226.122 210.113 239.753 186.26 244.629 160.85C245.099 158.409 241.814 157.151 240.519 159.284C235.347 167.839 228.602 175.633 220.346 182.239C182.115 212.833 126.083 206.122 96.2188 166.984Z" fill="#E8FFE3"/>
<path d="M280.532 43.5247V51.1432C280.532 53.3588 278.413 54.9719 276.276 54.35L218.301 37.8109C217.699 37.636 217.058 37.636 216.475 37.8109L158.5 54.35C156.363 54.9525 154.244 53.3588 154.244 51.1432V43.5247C154.244 42.0283 155.235 40.7261 156.673 40.318L216.475 23.2348C217.077 23.0598 217.718 23.0598 218.301 23.2348L278.102 40.318C279.541 40.7261 280.532 42.0477 280.532 43.5247Z" fill="#E8FFE3"/>
<path d="M280.532 69.6258V77.2637C280.532 79.4792 278.413 81.0923 276.276 80.4704L218.301 63.9119C217.699 63.737 217.058 63.737 216.475 63.9119L158.5 80.4704C156.363 81.0729 154.244 79.4792 154.244 77.2637V69.6258C154.244 68.1293 155.235 66.8271 156.673 66.419L216.475 49.3552C217.077 49.1803 217.718 49.1803 218.301 49.3552L278.102 66.419C279.541 66.8271 280.532 68.1487 280.532 69.6258Z" fill="#B09300"/>
<path d="M224.677 77.7496V95.0272C224.677 97.2233 222.597 98.817 220.459 98.2534L218.244 97.6509C217.68 97.4954 217.078 97.4954 216.514 97.6509L214.298 98.2534C212.18 98.817 210.081 97.2233 210.081 95.0272V77.7496C210.081 76.2337 211.092 74.9121 212.549 74.5234L216.495 73.4545C217.058 73.299 217.661 73.299 218.224 73.4545L222.17 74.5234C223.627 74.9121 224.638 76.2337 224.638 77.7496H224.677Z" fill="#B09300"/>
<path d="M238.184 124.238V131.895C238.184 134.091 236.104 135.685 233.986 135.121L218.263 130.904C217.699 130.749 217.097 130.749 216.533 130.904L200.13 135.296C198.012 135.86 195.932 134.266 195.932 132.07V124.413C195.932 122.897 196.943 121.575 198.42 121.187L207.651 118.718C209.109 118.33 210.139 117.008 210.139 115.492V109.059C210.139 107.543 211.15 106.222 212.607 105.833L216.553 104.764C217.116 104.609 217.719 104.609 218.282 104.764L222.227 105.833C223.685 106.222 224.696 107.543 224.696 109.059V115.492C224.696 117.008 225.706 118.33 227.164 118.718L235.715 121.012C237.173 121.4 238.184 122.722 238.184 124.238Z" fill="#E8FFE3"/>
<path d="M203.182 81.4032V110.556C203.182 112.071 202.171 113.393 200.714 113.782L179.957 119.34C177.839 119.904 175.759 118.31 175.759 116.114V108.457C175.759 106.941 176.77 105.619 178.227 105.23L186.137 103.112C187.595 102.723 188.606 101.402 188.606 99.8858C188.606 97.6896 186.526 96.096 184.408 96.6596L158.462 103.617C156.344 104.181 154.264 102.587 154.264 100.391V92.7338C154.264 91.2178 155.275 89.8963 156.732 89.5076L198.984 78.177C201.102 77.6134 203.182 79.2071 203.182 81.4032Z" fill="#E8FFE3"/>
<path d="M186.099 124.471L178.208 126.59C176.75 126.978 175.74 128.3 175.74 129.816V137.473C175.74 139.669 177.819 141.263 179.938 140.699L187.828 138.581C189.286 138.192 190.296 136.871 190.296 135.355V127.697C190.296 125.501 188.217 123.908 186.099 124.471Z" fill="#E8FFE3"/>
<path d="M168.82 141.107V112.402C168.82 110.206 166.74 108.612 164.622 109.176L156.731 111.294C155.274 111.683 154.263 113.005 154.263 114.521V143.226C154.263 145.422 156.343 147.016 158.461 146.452L166.352 144.334C167.809 143.945 168.82 142.623 168.82 141.107Z" fill="#E8FFE3"/>
<path d="M247.454 100.216C247.454 101.732 248.465 103.054 249.923 103.442L257.833 105.561C259.29 105.95 260.301 107.271 260.301 108.787V116.444C260.301 118.64 258.221 120.234 256.103 119.671L235.327 114.112C233.87 113.723 232.859 112.402 232.859 110.886V81.7337C232.859 79.5375 234.938 77.9439 237.057 78.5075L257.833 84.0659C259.29 84.4546 260.301 85.7761 260.301 87.2921V94.9494C260.301 97.1455 258.221 98.7392 256.103 98.1756L251.652 96.9901C249.534 96.4264 247.454 98.0201 247.454 100.216Z" fill="#E8FFE3"/>
<path d="M280.531 92.7144V143.226C280.531 145.422 278.452 147.015 276.333 146.452L268.443 144.333C266.985 143.945 265.975 142.623 265.975 141.107V90.596C265.975 88.3999 268.054 86.8062 270.173 87.3698L278.063 89.4883C279.521 89.877 280.531 91.1985 280.531 92.7144Z" fill="#E8FFE3"/>
<path d="M260.32 130.165V137.823C260.32 140.019 258.24 141.613 256.122 141.049L248.231 138.931C246.774 138.542 245.763 137.22 245.763 135.704V128.047C245.763 125.851 247.843 124.257 249.961 124.821L257.852 126.939C259.309 127.328 260.32 128.65 260.32 130.165Z" fill="#B09300"/>
</svg>
