<svg width="303" height="272" viewBox="0 0 303 272" fill="none" xmlns="http://www.w3.org/2000/svg">
<path d="M96.2188 167.677C67.6104 130.201 74.2289 76.0453 110.992 46.5185C119.28 39.8655 128.415 34.9617 137.944 31.7693C140.299 30.987 139.76 27.4975 137.283 27.4205C110.843 26.5905 83.9854 35.0409 61.9464 53.2754C15.1898 91.9636 7.58294 161.562 44.8826 209.44C82.1822 257.318 155.325 267.456 204.358 228.228C226.122 210.807 239.753 186.954 244.629 161.543C245.099 159.102 241.814 157.844 240.519 159.977C235.347 168.533 228.602 176.326 220.346 182.933C182.115 213.526 126.083 206.815 96.2188 167.677Z" fill="#711F44"/>
<path d="M280.532 44.2175V51.8359C280.532 54.0515 278.413 55.6646 276.276 55.0427L218.301 38.5036C217.699 38.3287 217.058 38.3287 216.475 38.5036L158.5 55.0427C156.363 55.6452 154.244 54.0515 154.244 51.8359V44.2175C154.244 42.721 155.235 41.4189 156.673 41.0107L216.475 23.9275C217.077 23.7526 217.718 23.7526 218.301 23.9275L278.102 41.0107C279.541 41.4189 280.532 42.7404 280.532 44.2175Z" fill="#711F44"/>
<path d="M280.532 70.3184V77.9562C280.532 80.1718 278.413 81.7849 276.276 81.163L218.301 64.6045C217.699 64.4296 217.058 64.4296 216.475 64.6045L158.5 81.163C156.363 81.7655 154.244 80.1718 154.244 77.9562V70.3184C154.244 68.8219 155.235 67.5197 156.673 67.1116L216.475 50.0478C217.077 49.8729 217.718 49.8729 218.301 50.0478L278.102 67.1116C279.541 67.5197 280.532 68.8413 280.532 70.3184Z" fill="#B09300"/>
<path d="M224.677 78.4422V95.7198C224.677 97.916 222.597 99.5096 220.459 98.946L218.244 98.3435C217.68 98.1881 217.078 98.1881 216.514 98.3435L214.298 98.946C212.18 99.5096 210.081 97.916 210.081 95.7198V78.4422C210.081 76.9263 211.092 75.6047 212.549 75.216L216.495 74.1471C217.058 73.9917 217.661 73.9917 218.224 74.1471L222.17 75.216C223.627 75.6047 224.638 76.9263 224.638 78.4422H224.677Z" fill="#B09300"/>
<path d="M238.184 124.931V132.588C238.184 134.784 236.104 136.378 233.986 135.814L218.263 131.597C217.699 131.441 217.097 131.441 216.533 131.597L200.13 135.989C198.012 136.553 195.932 134.959 195.932 132.763V125.105C195.932 123.59 196.943 122.268 198.42 121.879L207.651 119.411C209.109 119.022 210.139 117.701 210.139 116.185V109.752C210.139 108.236 211.15 106.914 212.607 106.526L216.553 105.457C217.116 105.301 217.719 105.301 218.282 105.457L222.227 106.526C223.685 106.914 224.696 108.236 224.696 109.752V116.185C224.696 117.701 225.706 119.022 227.164 119.411L235.715 121.704C237.173 122.093 238.184 123.415 238.184 124.931Z" fill="#711F44"/>
<path d="M203.182 82.0959V111.248C203.182 112.764 202.171 114.086 200.714 114.474L179.957 120.033C177.839 120.596 175.759 119.003 175.759 116.807V109.149C175.759 107.633 176.77 106.312 178.227 105.923L186.137 103.805C187.595 103.416 188.606 102.094 188.606 100.578C188.606 98.3823 186.526 96.7887 184.408 97.3523L158.462 104.31C156.344 104.874 154.264 103.28 154.264 101.084V93.4264C154.264 91.9105 155.275 90.5889 156.732 90.2003L198.984 78.8697C201.102 78.3061 203.182 79.8998 203.182 82.0959Z" fill="#711F44"/>
<path d="M186.099 125.164L178.208 127.282C176.75 127.671 175.74 128.992 175.74 130.508V138.166C175.74 140.362 177.819 141.955 179.938 141.392L187.828 139.273C189.286 138.885 190.296 137.563 190.296 136.047V128.39C190.296 126.194 188.217 124.6 186.099 125.164Z" fill="#711F44"/>
<path d="M168.82 141.8V113.094C168.82 110.898 166.74 109.305 164.622 109.868L156.731 111.987C155.274 112.375 154.263 113.697 154.263 115.213V143.918C154.263 146.114 156.343 147.708 158.461 147.144L166.352 145.026C167.809 144.637 168.82 143.316 168.82 141.8Z" fill="#711F44"/>
<path d="M247.454 100.909C247.454 102.425 248.465 103.746 249.923 104.135L257.833 106.254C259.29 106.642 260.301 107.964 260.301 109.48V117.137C260.301 119.333 258.221 120.927 256.103 120.363L235.327 114.805C233.87 114.416 232.859 113.095 232.859 111.579V82.4264C232.859 80.2303 234.938 78.6366 237.057 79.2003L257.833 84.7586C259.29 85.1473 260.301 86.4689 260.301 87.9848V95.6422C260.301 97.8383 258.221 99.432 256.103 98.8684L251.652 97.6828C249.534 97.1192 247.454 98.7128 247.454 100.909Z" fill="#711F44"/>
<path d="M280.531 93.4071V143.918C280.531 146.114 278.452 147.708 276.333 147.144L268.443 145.026C266.985 144.637 265.975 143.316 265.975 141.8V91.2887C265.975 89.0925 268.054 87.4989 270.173 88.0625L278.063 90.1809C279.521 90.5696 280.531 91.8911 280.531 93.4071Z" fill="#711F44"/>
<path d="M260.32 130.858V138.515C260.32 140.712 258.24 142.305 256.122 141.742L248.231 139.623C246.774 139.235 245.763 137.913 245.763 136.397V128.74C245.763 126.544 247.843 124.95 249.961 125.514L257.852 127.632C259.309 128.021 260.32 129.342 260.32 130.858Z" fill="#B09300"/>
</svg>
