<svg width="469" height="384" viewBox="0 0 469 384" fill="none" xmlns="http://www.w3.org/2000/svg">
<path d="M179.219 167.143C150.61 129.666 157.229 75.5109 193.992 45.9841C202.28 39.3312 211.415 34.4274 220.944 31.235C223.299 30.4526 222.76 26.9632 220.283 26.8861C193.843 26.0562 166.985 34.5065 144.946 52.7411C98.1898 91.4293 90.5829 161.028 127.883 208.906C165.182 256.784 238.325 266.922 287.358 227.694C309.122 210.272 322.753 186.419 327.629 161.008C328.099 158.567 324.814 157.309 323.519 159.443C318.347 167.998 311.602 175.792 303.346 182.398C265.115 212.992 209.083 206.281 179.219 167.143Z" fill="#711F44"/>
<path d="M363.532 43.683V51.3015C363.532 53.5171 361.413 55.1302 359.276 54.5082L301.301 37.9692C300.699 37.7943 300.058 37.7943 299.475 37.9692L241.5 54.5082C239.363 55.1107 237.244 53.5171 237.244 51.3015V43.683C237.244 42.1865 238.235 40.8844 239.673 40.4763L299.475 23.393C300.077 23.2181 300.718 23.2181 301.301 23.393L361.102 40.4763C362.541 40.8844 363.532 42.206 363.532 43.683Z" fill="#711F44"/>
<path d="M363.532 69.7841V77.422C363.532 79.6376 361.413 81.2507 359.276 80.6287L301.301 64.0702C300.699 63.8953 300.058 63.8953 299.475 64.0702L241.5 80.6287C239.363 81.2312 237.244 79.6376 237.244 77.422V69.7841C237.244 68.2876 238.235 66.9855 239.673 66.5773L299.475 49.5135C300.077 49.3386 300.718 49.3386 301.301 49.5135L361.102 66.5773C362.541 66.9855 363.532 68.307 363.532 69.7841Z" fill="#B09300"/>
<path d="M307.677 77.9078V95.1854C307.677 97.3815 305.597 98.9752 303.459 98.4116L301.244 97.8091C300.68 97.6536 300.078 97.6536 299.514 97.8091L297.298 98.4116C295.18 98.9752 293.081 97.3815 293.081 95.1854V77.9078C293.081 76.3919 294.092 75.0703 295.549 74.6816L299.495 73.6127C300.058 73.4572 300.661 73.4572 301.224 73.6127L305.17 74.6816C306.627 75.0703 307.638 76.3919 307.638 77.9078H307.677Z" fill="#B09300"/>
<path d="M321.184 124.396V132.053C321.184 134.25 319.104 135.843 316.986 135.28L301.263 131.062C300.699 130.907 300.097 130.907 299.533 131.062L283.13 135.455C281.012 136.018 278.932 134.424 278.932 132.228V124.571C278.932 123.055 279.943 121.734 281.42 121.345L290.651 118.877C292.109 118.488 293.139 117.166 293.139 115.65V109.217C293.139 107.702 294.15 106.38 295.607 105.991L299.553 104.922C300.116 104.767 300.719 104.767 301.282 104.922L305.227 105.991C306.685 106.38 307.696 107.702 307.696 109.217V115.65C307.696 117.166 308.706 118.488 310.164 118.877L318.715 121.17C320.173 121.559 321.184 122.88 321.184 124.396Z" fill="#711F44"/>
<path d="M286.182 81.5617V110.714C286.182 112.23 285.171 113.551 283.714 113.94L262.957 119.499C260.839 120.062 258.759 118.468 258.759 116.272V108.615C258.759 107.099 259.77 105.778 261.227 105.389L269.137 103.27C270.595 102.882 271.606 101.56 271.606 100.044C271.606 97.8481 269.526 96.2544 267.408 96.818L241.462 103.776C239.344 104.339 237.264 102.746 237.264 100.55V92.8922C237.264 91.3763 238.275 90.0547 239.732 89.666L281.984 78.3355C284.102 77.7719 286.182 79.3655 286.182 81.5617Z" fill="#711F44"/>
<path d="M269.099 124.629L261.208 126.748C259.75 127.136 258.74 128.458 258.74 129.974V137.631C258.74 139.827 260.819 141.421 262.938 140.857L270.828 138.739C272.286 138.35 273.296 137.029 273.296 135.513V127.855C273.296 125.659 271.217 124.066 269.099 124.629Z" fill="#711F44"/>
<path d="M251.82 141.266V112.56C251.82 110.364 249.74 108.77 247.622 109.334L239.731 111.452C238.274 111.841 237.263 113.163 237.263 114.679V143.384C237.263 145.58 239.343 147.174 241.461 146.61L249.352 144.492C250.809 144.103 251.82 142.781 251.82 141.266Z" fill="#711F44"/>
<path d="M330.454 100.375C330.454 101.89 331.465 103.212 332.923 103.601L340.833 105.719C342.29 106.108 343.301 107.429 343.301 108.945V116.603C343.301 118.799 341.221 120.392 339.103 119.829L318.327 114.27C316.87 113.882 315.859 112.56 315.859 111.044V81.892C315.859 79.6959 317.938 78.1022 320.057 78.6658L340.833 84.2242C342.29 84.6129 343.301 85.9345 343.301 87.4504V95.1077C343.301 97.3039 341.221 98.8975 339.103 98.3339L334.652 97.1484C332.534 96.5848 330.454 98.1784 330.454 100.375Z" fill="#711F44"/>
<path d="M363.531 92.8725V143.384C363.531 145.58 361.452 147.173 359.333 146.61L351.443 144.491C349.985 144.103 348.975 142.781 348.975 141.265V90.7541C348.975 88.5579 351.054 86.9643 353.173 87.5279L361.063 89.6463C362.521 90.035 363.531 91.3565 363.531 92.8725Z" fill="#711F44"/>
<path d="M343.32 130.324V137.981C343.32 140.177 341.24 141.771 339.122 141.207L331.231 139.089C329.774 138.7 328.763 137.379 328.763 135.863V128.205C328.763 126.009 330.843 124.416 332.961 124.979L340.852 127.098C342.309 127.486 343.32 128.808 343.32 130.324Z" fill="#B09300"/>
<path d="M89.2243 308.886V315.753H75.5649V360.201H67.1477V315.753H53.4145V308.886H89.2243ZM106.166 315.679V330.741H123.886V337.608H106.166V353.335H126.101V360.201H97.7488V308.812H126.101V315.679H106.166ZM133.663 334.433C133.663 329.412 134.82 324.908 137.133 320.921C139.496 316.934 142.671 313.833 146.658 311.618C150.694 309.354 155.1 308.222 159.874 308.222C165.338 308.222 170.187 309.575 174.42 312.282C178.702 314.94 181.803 318.731 183.723 323.653H173.608C172.279 320.946 170.433 318.928 168.07 317.599C165.707 316.27 162.975 315.605 159.874 315.605C156.478 315.605 153.451 316.368 150.793 317.894C148.135 319.42 146.043 321.61 144.517 324.465C143.04 327.32 142.302 330.643 142.302 334.433C142.302 338.223 143.04 341.546 144.517 344.401C146.043 347.255 148.135 349.471 150.793 351.046C153.451 352.572 156.478 353.335 159.874 353.335C162.975 353.335 165.707 352.67 168.07 351.341C170.433 350.012 172.279 347.994 173.608 345.287H183.723C181.803 350.209 178.702 353.999 174.42 356.657C170.187 359.315 165.338 360.644 159.874 360.644C155.05 360.644 150.645 359.537 146.658 357.322C142.671 355.057 139.496 351.932 137.133 347.945C134.82 343.958 133.663 339.454 133.663 334.433ZM234.554 308.886V360.201H226.136V337.755H201.992V360.201H193.575V308.886H201.992V330.889H226.136V308.886H234.554ZM292.281 333.842C295.037 334.334 297.375 335.786 299.295 338.198C301.215 340.61 302.175 343.342 302.175 346.394C302.175 349.003 301.486 351.366 300.107 353.482C298.778 355.55 296.834 357.199 294.274 358.429C291.715 359.61 288.737 360.201 285.34 360.201H264.814V308.886H284.38C287.875 308.886 290.878 309.477 293.388 310.658C295.899 311.839 297.794 313.439 299.074 315.457C300.353 317.426 300.993 319.641 300.993 322.102C300.993 325.056 300.206 327.517 298.631 329.486C297.055 331.455 294.939 332.907 292.281 333.842ZM273.231 330.446H283.642C286.399 330.446 288.54 329.83 290.066 328.6C291.641 327.32 292.428 325.499 292.428 323.136C292.428 320.823 291.641 319.026 290.066 317.746C288.54 316.417 286.399 315.753 283.642 315.753H273.231V330.446ZM284.602 353.335C287.457 353.335 289.697 352.645 291.321 351.267C292.945 349.889 293.757 347.969 293.757 345.508C293.757 342.998 292.896 341.004 291.173 339.527C289.45 338.051 287.162 337.312 284.307 337.312H273.231V353.335H284.602ZM319.739 308.886V360.201H311.322V308.886H319.739ZM315.53 303.718C314.3 303.718 313.241 303.299 312.355 302.462C311.518 301.576 311.1 300.518 311.1 299.288C311.1 298.057 311.518 297.023 312.355 296.186C313.241 295.3 314.3 294.857 315.53 294.857C316.761 294.857 317.794 295.3 318.631 296.186C319.517 297.023 319.96 298.057 319.96 299.288C319.96 300.518 319.517 301.576 318.631 302.462C317.794 303.299 316.761 303.718 315.53 303.718ZM357.444 360.201L345.63 339.675H339.207V360.201H330.79V308.886H348.51C352.448 308.886 355.77 309.575 358.478 310.953C361.234 312.332 363.277 314.178 364.606 316.491C365.984 318.804 366.673 321.389 366.673 324.244C366.673 327.591 365.689 330.643 363.72 333.399C361.8 336.106 358.822 337.952 354.786 338.937L367.486 360.201H357.444ZM339.207 332.956H348.51C351.66 332.956 354.023 332.169 355.598 330.593C357.223 329.018 358.035 326.902 358.035 324.244C358.035 321.586 357.247 319.518 355.672 318.042C354.097 316.516 351.71 315.753 348.51 315.753H339.207V332.956ZM404.095 360.201L392.282 339.675H385.858V360.201H377.441V308.886H395.161C399.099 308.886 402.422 309.575 405.129 310.953C407.886 312.332 409.928 314.178 411.257 316.491C412.636 318.804 413.325 321.389 413.325 324.244C413.325 327.591 412.34 330.643 410.371 333.399C408.452 336.106 405.474 337.952 401.437 338.937L414.137 360.201H404.095ZM385.858 332.956H395.161C398.312 332.956 400.674 332.169 402.25 330.593C403.874 329.018 404.686 326.902 404.686 324.244C404.686 321.586 403.899 319.518 402.323 318.042C400.748 316.516 398.361 315.753 395.161 315.753H385.858V332.956Z" fill="#711F44"/>
</svg>
